:version 1.10
:name ASF
:units
  mass 1
  length 1
  angle deg
:documentation
  ASF file generated by Kaydara
:root
  axis xyz
  order  tx ty tz rx ry rz
  position 0 0 0
  orientation 0 0 0
:bonedata
  begin
    id 1
    name RightUpLegDummy
    direction -0.718183 -0.695806 0.00816078
    length 4.904
    axis 0 0 0 xyz
  end
  begin
    id 2
    name RightUpLeg
    direction -0.00334265 -0.999142 0.0412837
    length 17.4976
    axis -0.59612 0.00940841 -0.192072 xyz
    dof rx ry rz
  end
  begin
    id 3
    name RightLeg
    direction 0.000365068 -0.988824 -0.149089
    length 16.5821
    axis 6.58657 0.0604092 -0.318554 xyz
    dof rx ry rz
  end
  begin
    id 4
    name RightFoot
    direction 0.00079069 -0.460991 0.887405
    length 3.77069
    axis 0.000105557 -0.120464 -0.188919 xyz
    dof rx ry rz
  end
  begin
    id 5
    name RightToes
    direction 0.00124768 -0.014065 0.9999
    length 3.85082
    axis 0.00053932 0.542178 -0.142707 xyz
    dof rx ry rz
  end
  begin
    id 6
    name SpineDummy
    direction 8.3039e-015 1 4.58682e-016
    length 4.6813
    axis 0 0 0 xyz
  end
  begin
    id 7
    name Spine
    direction 4.12799e-006 0.999988 0.00494944
    length 10.1015
    axis -0.00149944 0.000129667 -0.000235877 xyz
    dof rx ry rz
  end
  begin
    id 8
    name Spine1
    direction 0 0 0
    length 0
    axis -0.00160567 0.000129431 -0.000308381 xyz
    dof rx ry rz
  end
  begin
    id 9
    name HEadDummy
    direction 5.38513e-006 0.999999 0.00127044
    length 3.43865
    axis -0.00160567 0.000129431 -0.000308381 xyz
  end
  begin
    id 10
    name HEad
    direction -0.0226495 0.980942 0.192974
    length 5.12695
    axis -0.00160642 -0.114462 -0.000307946 xyz
    dof rx ry rz
  end
  begin
    id 11
    name LeftShoulder1Dummy
    direction 0.99889 -0.0402564 -0.0244456
    length 3.5433
    axis -0.00160567 0.000129431 -0.000308381 xyz
  end
  begin
    id 12
    name LeftShoulder1
    direction 0.999464 -0.00142945 0.0326977
    length 4.05031
    axis 0.393425 -0.0796525 -0.0507861 xyz
    dof rx ry rz
  end
  begin
    id 13
    name LeftArm
    direction 0.998564 -0.000899612 -0.053557
    length 10.3537
    axis -22.9476 0.126974 0.960871 xyz
    dof rx ry rz
  end
  begin
    id 14
    name LeftForeArm
    direction 0.998903 0.00865904 0.0460121
    length 8.70632
    axis -9.91856 -0.0656997 -0.178106 xyz
    dof rx ry rz
  end
  begin
    id 15
    name LeftHand
    direction 0.992938 -0.0411687 0.11126
    length 5.32135
    axis -0.00981066 -0.00340928 0.18486 xyz
    dof rx ry rz
  end
  begin
    id 16
    name RightShoulderDummy
    direction -0.998891 -0.0402456 -0.0244411
    length 3.5433
    axis -0.00160567 0.000129431 -0.000308381 xyz
  end
  begin
    id 17
    name RightShoulder
    direction -0.999353 -0.00388479 0.0357579
    length 4.05031
    axis 1.48787 0.256014 0.157284 xyz
    dof rx ry rz
  end
  begin
    id 18
    name RightArm
    direction -0.998583 -0.000660455 -0.0532032
    length 10.3947
    axis -22.4211 -0.109147 -0.943573 xyz
    dof rx ry rz
  end
  begin
    id 19
    name RightForeArm
    direction -0.998898 0.00868588 0.0461311
    length 8.68355
    axis -9.92343 0.0658342 0.178556 xyz
    dof rx ry rz
  end
  begin
    id 20
    name RightHand
    direction -0.992843 -0.0414545 0.112004
    length 5.28593
    axis -0.00982288 0.00332907 -0.185539 xyz
    dof rx ry rz
  end
  begin
    id 21
    name LeftUpLegDummy
    direction 0.718183 -0.695806 0.00816078
    length 4.904
    axis 0 0 0 xyz
  end
  begin
    id 22
    name LeftUpLeg
    direction 0.00445374 -0.999139 0.0412407
    length 17.4976
    axis -0.593655 -0.0138231 0.255969 xyz
    dof rx ry rz
  end
  begin
    id 23
    name LeftLeg
    direction -0.00154847 -0.988829 -0.149046
    length 16.5821
    axis 6.5841 -0.0555156 0.250722 xyz
    dof rx ry rz
  end
  begin
    id 24
    name LeftFoot
    direction -0.00417678 -0.460985 0.887398
    length 3.77069
    axis 5.53694e-005 4.88088e-005 -0.000136194 xyz
    dof rx ry rz
  end
  begin
    id 25
    name LeftToes
    direction 0.00818061 -0.00485256 0.999955
    length 3.85048
    axis 6.41179e-005 4.88477e-005 -0.000136145 xyz
    dof rx ry rz
  end
:hierarchy
  begin
    root RightUpLegDummy SpineDummy LeftUpLegDummy
    RightUpLegDummy RightUpLeg
    RightUpLeg RightLeg
    RightLeg RightFoot
    RightFoot RightToes
    SpineDummy Spine
    Spine Spine1
    Spine1 HEadDummy LeftShoulder1Dummy RightShoulderDummy
    HEadDummy HEad
    LeftShoulder1Dummy LeftShoulder1
    LeftShoulder1 LeftArm
    LeftArm LeftForeArm
    LeftForeArm LeftHand
    RightShoulderDummy RightShoulder
    RightShoulder RightArm
    RightArm RightForeArm
    RightForeArm RightHand
    LeftUpLegDummy LeftUpLeg
    LeftUpLeg LeftLeg
    LeftLeg LeftFoot
    LeftFoot LeftToes
  end

:SAMPLES-PER-SECOND 30
:FULLY-SPECIFIED
:DEGREES
164
root  50.266 39.0343 3.73431 -160.281 81.9521 -156.767
RightUpLeg  -13.4182 3.68641 5.41276
RightLeg  10.3201 0.919105 -1.15784
RightFoot  6.51724 0.972317 -5.6109
RightToes  -6.40286e-010 -1.59028e-015 9.93923e-017
Spine  -6.30237 -2.14373 2.75467
Spine1  12.4646 -2.21146 0.527905
HEad  -5.31548 -2.7321 0.575899
LeftShoulder1  9.93923e-017 0 1.22299e-017
LeftArm  20.6377 48.2519 -75.6757
LeftForeArm  -25.5797 -17.2569 -0.682266
LeftHand  0.951965 6.34224 -8.74023
RightShoulder  1.98785e-016 -4.96962e-017 1.55301e-017
RightArm  22.6074 -47.7865 86.7275
RightForeArm  -50.2748 22.3563 -21.4338
RightHand  1.02689 -9.61624 -4.93533
LeftUpLeg  -13.2028 -7.8832 6.38325
LeftLeg  45.2334 -8.07247 3.41898
LeftFoot  -0.60014 0.578061 -5.16848
LeftToes  8.73142e-011 -6.07963e-011 6.03181e-012
165
root  51.1069 39.3291 3.79308 -166.168 82.2963 -162.926
RightUpLeg  -11.3045 3.15952 4.81857
RightLeg  8.39658 1.46416 -0.773296
RightFoot  6.3341 1.03918 -6.0555
RightToes  -6.40286e-010 -1.59028e-015 9.93923e-017
Spine  -5.95597 -1.09642 3.20001
Spine1  11.8286 -0.85936 -0.787363
HEad  -5.725 -4.11272 0.985754
LeftShoulder1  9.93923e-017 0 1.22299e-017
LeftArm  30.0797 50.0787 -74.0409
LeftForeArm  -36.6061 -21.2334 4.74897
LeftHand  0.944638 6.26201 -8.4339
RightShoulder  1.98785e-016 -4.96962e-017 1.55301e-017
RightArm  22.4831 -45.8775 85.8241
RightForeArm  -48.5293 23.3984 -22.087
RightHand  1.0107 -9.50695 -4.89337
LeftUpLeg  -14.7318 -7.72517 5.30249
LeftLeg  37.4289 -5.77301 4.07621
LeftFoot  -1.47875 0.628862 -6.04721
LeftToes  8.73142e-011 -6.07963e-011 6.03181e-012
166
root  51.9012 39.5633 3.82037 -170.93 82.7822 -168.07
RightUpLeg  -9.60292 2.76865 4.31187
RightLeg  6.8581 2.09919 -0.470523
RightFoot  5.8934 1.05353 -6.28435
RightToes  -6.40286e-010 -1.59028e-015 9.93923e-017
Spine  -5.96261 -0.254983 3.63028
Spine1  11.4094 0.260012 -2.15962
HEad  -5.94637 -4.9698 1.34488
LeftShoulder1  9.93923e-017 0 1.22299e-017
LeftArm  34.2616 51.0614 -72.6169
LeftForeArm  -42.2991 -22.7134 7.92432
LeftHand  0.941725 6.30136 -7.71362
RightShoulder  1.98785e-016 -4.96962e-017 1.55301e-017
RightArm  22.0561 -43.9385 85.2283
RightForeArm  -48.2156 23.6421 -22.2576
RightHand  1.0292 -9.59918 -5.09641
LeftUpLeg  -15.1663 -7.93329 4.46259
LeftLeg  28.1545 -3.07892 3.95783
LeftFoot  -2.28345 0.555266 -5.76514
LeftToes  8.73142e-011 -6.07963e-011 6.03181e-012
167
root  52.6569 39.7293 3.80397 -174.708 83.5224 -172.1
RightUpLeg  -8.14791 2.64845 3.97861
RightLeg  5.91301 2.82172 -0.450234
RightFoot  5.15094 1.0199 -6.33531
RightToes  -6.40286e-010 -1.59028e-015 9.93923e-017
Spine  -6.23618 0.347512 3.89505
Spine1  11.41 1.06289 -3.14101
HEad  -5.89761 -5.15722 1.3772
LeftShoulder1  9.93923e-017 0 1.22299e-017
LeftArm  30.9882 51.1455 -71.9091
LeftForeArm  -40.3349 -22.1266 6.85948
LeftHand  0.919329 6.173 -6.23256
RightShoulder  1.98785e-016 -4.96962e-017 1.55301e-017
RightArm  21.0264 -42.1458 85.0351
RightForeArm  -48.8358 23.3778 -22.0569
RightHand  1.07638 -9.84507 -5.52077
LeftUpLeg  -14.4483 -7.79959 3.65163
LeftLeg  18.7987 -3.17774 2.10436
LeftFoot  -2.00991 0.53296 -5.39053
LeftToes  8.73142e-011 -6.07963e-011 6.03181e-012
